<?xml version="1.0" standalone="no"?><!DOCTYPE svg PUBLIC "-//W3C//DTD SVG 1.1//EN" "http://www.w3.org/Graphics/SVG/1.1/DTD/svg11.dtd"><svg t="1712555247169" class="icon" viewBox="0 0 1053 1024" version="1.1" xmlns="http://www.w3.org/2000/svg" p-id="1533" xmlns:xlink="http://www.w3.org/1999/xlink" width="205.6640625" height="200"><path d="M186.379691 720.721702h138.928157v280.823631h-138.928157z" fill="#9DE0E0" p-id="1534"></path><path d="M415.942742 807.458275h138.928158v194.087058h-138.928158z" fill="#F0A6A6" p-id="1535"></path><path d="M645.505793 587.881216h138.936661v413.664117h-138.936661z" fill="#FFE66B" p-id="1536"></path><path d="M879.320012 259.533783h138.936661v742.01155h-138.936661z" fill="#9F9FC4" p-id="1537"></path><path d="M323.717912 330.022393m-317.532463 0a317.532463 317.532463 0 1 0 635.064926 0 317.532463 317.532463 0 1 0-635.064926 0Z" fill="#9FC8F5" p-id="1538"></path><path d="M548.247581 105.492724C490.788799 48.029692 411.406746 12.48993 323.717912 12.48993v317.532463l224.529669-224.529669z" fill="#F0A6A6" p-id="1539"></path><path d="M548.247581 105.492724L323.717912 330.022393l224.525418 224.529669c57.467284-57.463033 93.007045-136.845086 93.007045-224.529669s-35.544012-167.062385-93.002794-224.529669z" fill="#FFE66B" p-id="1540"></path></svg>