<?xml version="1.0" standalone="no"?><!DOCTYPE svg PUBLIC "-//W3C//DTD SVG 1.1//EN" "http://www.w3.org/Graphics/SVG/1.1/DTD/svg11.dtd"><svg t="1712555139162" class="icon" viewBox="0 0 1024 1024" version="1.1" xmlns="http://www.w3.org/2000/svg" p-id="2725" xmlns:xlink="http://www.w3.org/1999/xlink" width="200" height="200"><path d="M887.854918 409.755847c12.287344-59.090804-11.873118-127.208459-69.130663-176.439859a236.875873 236.875873 0 0 0-74.335149-43.321499C704.508555 108.227876 615.462224 51.26562 511.917975 51.26562c-100.287856 0-187.004678 53.422877-228.587248 131.071836-35.504518 8.227107-70.389747 25.243191-100.316565 50.978532-63.323294 54.44819-86.126242 131.978212-63.954886 194.870875-33.154502 39.630375-52.918424 89.280103-52.918424 143.203332 0 129.734829 114.08446 234.899071 254.827043 234.899071 33.581032 0 65.619994-6.016533 94.972637-16.909452 28.835886 0 62.904966-21.945787 99.434796-21.945786 35.135405 0 41.816341 4.65902 96.125089 23.155655a272.983275 272.983275 0 0 0 91.527587 15.691381c140.73438 0 254.827043-105.168343 254.827042-234.89497-0.004101-62.646588-26.629414-119.526818-70.000128-161.630247z" fill="#57B57A" p-id="2726"></path><path d="M454.213393 790.077027c-9.596924 59.090804-20.124832 121.150913-31.288433 182.657353h187.591157s-11.405575-59.574752-34.667863-182.640948" fill="#A5A5C6" p-id="2727"></path><path d="M610.516117 1003.493752h-187.591157a30.742967 30.742967 0 0 1-30.263121-36.250945c10.183403-56.105095 20.6785-117.369561 31.190003-182.091381 2.72323-16.77001 18.537648-28.114066 35.291253-25.427748a30.759372 30.759372 0 0 1 25.427748 35.287152 10579.111823 10579.111823 0 0 1-24.886383 146.968279h113.649728c-5.704838-29.939122-14.916245-78.444601-27.712144-146.172637a30.755271 30.755271 0 0 1 24.513169-35.93925 30.783979 30.783979 0 0 1 35.93925 24.51727 81953.343159 81953.343159 0 0 0 34.659661 182.567126 30.775777 30.775777 0 0 1-6.504582 25.382634 30.779878 30.779878 0 0 1-23.713425 11.1595z" fill="#6E6E96" p-id="2728"></path><path d="M792.640308 380.079205c10.002948-48.111759-9.662544-103.577059-56.297854-143.662672a192.963794 192.963794 0 0 0-60.526241-35.278949C643.350721 134.557898 570.844729 88.176866 486.53124 88.176866c-81.659981 0-152.267094 43.497853-186.127011 106.722717-28.909708 6.701442-57.314963 20.555463-81.684588 41.508748-51.56091 44.338609-70.131368 107.465043-52.073566 158.673245-26.994425 32.268632-43.087728 72.690548-43.087728 116.602628 0 105.631785 92.893303 191.269978 207.490419 191.269977 27.343031 0 53.43108-4.892791 77.329062-13.763793 23.479654 0 51.220506-17.865043 80.962768-17.865044 28.614418 0 34.056777 3.793656 78.272349 18.861647a222.25902 222.25902 0 0 0 74.527907 12.775393c114.588914 0 207.494521-85.634092 207.494521-191.265876-0.004101-51.023646-21.683307-97.339058-56.995065-131.617303z" fill="#69DB94" p-id="2729"></path><path d="M144.839731 596.133034s-26.932906-118.25133 60.169433-118.251329 95.780583 118.25133 157.299327 34.118295c77.480807-105.959885-135.132073-255.995899-200.510093-179.060558-0.004101 0-104.266069 179.454277-16.958667 263.193592zM610.516117 126.142134S509.949375 239.266902 567.36687 292.583146s136.66594-60.583659 207.785709-17.376994c0.004101 0-104.17174-120.273246-164.636462-149.064018z" fill="#57B57A" p-id="2730"></path><path d="M920.628004 399.363281c7.521692-67.44505-22.868568-138.663249-81.848638-189.362897a266.30644 266.30644 0 0 0-72.452676-44.510861C717.776097 77.025569 619.3215 20.506248 511.917975 20.506248 407.72983 20.506248 313.655367 72.022044 263.029542 155.847485a267.799295 267.799295 0 0 0-100.07049 54.148798C96.535213 267.106184 67.11695 348.495482 85.064018 421.690484c-32.563922 44.174559-49.682538 95.600128-49.682538 149.703813 0 146.492534 128.114835 265.658443 285.586415 265.658443 34.733483 0 68.650817-5.749952 100.898943-17.106313 16.392695-1.062224 32.227619-6.283114 47.595001-11.35636 16.204037-5.348029 31.509901-10.392566 45.909388-10.392566 24.324511 0 29.516693 1.808651 63.327395 13.603845a2912.502403 2912.502403 0 0 0 22.491253 7.775969c32.617238 11.590131 66.879077 17.467222 101.834028 17.467222 157.47158 0 285.586415-119.174111 285.586414-265.658443 0-63.536559-24.02512-124.02999-67.982313-172.022813z m-217.591798 376.170715a242.486383 242.486383 0 0 1-81.606664-14.050882 2828.615444 2828.615444 0 0 1-22.458443-7.767766c-35.549632-12.393976-48.849984-17.036591-83.595771-17.036591-24.283499 0-46.011919 7.168984-65.185261 13.48901-13.177315 4.351426-25.624607 8.456777-34.249535 8.456776h-5.524383l-5.179879 1.923486c-26.797565 9.949632-55.149503 14.985966-84.272476 14.985967-123.550144 0-224.067671-91.576802-224.067671-204.139699 0-41.205255 13.304454-80.462416 38.53124-114.260814 1.390324-0.967895 2.735533-2.030119 3.986415-3.252291 0.26248-0.254277 26.920602-25.284204 61.596667-24.180968 23.282794 0.758731 46.233387 13.538225 68.207882 37.989875a30.68555 30.68555 0 0 0 22.889074 10.191606 30.759372 30.759372 0 0 0 22.864467-51.323038C281.362128 389.159372 243.688049 369.52669 203.003653 368.21429c-23.610894-0.771035-44.576482 4.999423-61.551554 12.467799-0.779237-43.559372 21.256777-89.329318 61.621275-124.034092 25.124255-21.613585 55.280743-36.939955 87.20487-44.338609l13.58744-3.14976 6.582506-12.295546c37.936559-70.832682 115.13438-114.834989 201.473886-114.834989 67.945402 0 131.125152 28.15918 173.076835 74.655047-37.895546 5.725344-77.739186 26.051137-97.843512 76.332457a30.759372 30.759372 0 0 0 57.122204 22.843961c20.387312-50.97033 79.510926-39.261262 90.822173-36.497021a205.296251 205.296251 0 0 1 63.585774 37.28446c46.893688 40.315284 69.528484 96.584428 59.066196 146.849344l-3.445049 16.556744 12.135597 11.778789c39.117719 37.97347 60.661583 87.541173 60.669785 139.569625-0.012304 112.554694-100.525729 204.131496-224.075873 204.131497z" fill="#6E6E96" p-id="2731"></path><path d="M735.518103 673.999359m-53.316245 0a53.316245 53.316245 0 1 0 106.63249 0 53.316245 53.316245 0 1 0-106.63249 0Z" fill="#57B57A" p-id="2732"></path><path d="M682.193656 473.755847m-19.788529 0a19.788529 19.788529 0 1 0 39.577058 0 19.788529 19.788529 0 1 0-39.577058 0Z" fill="#57B57A" p-id="2733"></path><path d="M805.366485 633.109901m-69.844281 0a69.844281 69.844281 0 1 0 139.688562 0 69.844281 69.844281 0 1 0-139.688562 0Z" fill="#57B57A" p-id="2734"></path><path d="M656.249151 719.728292m-45.728933 0a45.728933 45.728933 0 1 0 91.457866 0 45.728933 45.728933 0 1 0-91.457866 0Z" fill="#57B57A" p-id="2735"></path><path d="M580.088946 626.564306m-30.431272 0a30.431272 30.431272 0 1 0 60.862544 0 30.431272 30.431272 0 1 0-60.862544 0Z" fill="#57B57A" p-id="2736"></path><path d="M400.995578 211.981288m-21.929381 0a21.929382 21.929382 0 1 0 43.858763 0 21.929382 21.929382 0 1 0-43.858763 0Z" fill="#FFFFFF" p-id="2737"></path><path d="M435.228709 323.342518m-43.063121 0a43.063121 43.063121 0 1 0 86.126242 0 43.063121 43.063121 0 1 0-86.126242 0Z" fill="#FFFFFF" p-id="2738"></path><path d="M580.088946 484.402691m-30.431272 0a30.431272 30.431272 0 1 0 60.862544 0 30.431272 30.431272 0 1 0-60.862544 0Z" fill="#FFFFFF" opacity=".5" p-id="2739"></path><path d="M211.140532 548.222236m-33.388273 0a33.388273 33.388273 0 1 0 66.776546 0 33.388273 33.388273 0 1 0-66.776546 0Z" fill="#FFFFFF" opacity=".6" p-id="2740"></path><path d="M435.228709 366.405639m-125.243961 0a125.24396 125.24396 0 1 0 250.487921 0 125.24396 125.24396 0 1 0-250.487921 0Z" fill="#57B57A" p-id="2741"></path><path d="M654.748094 510.839346m-119.982057 0a119.982057 119.982057 0 1 0 239.964114 0 119.982057 119.982057 0 1 0-239.964114 0Z" fill="#57B57A" p-id="2742"></path><path d="M435.228709 323.342518m-83.850048 0a83.850048 83.850048 0 1 0 167.700096 0 83.850048 83.850048 0 1 0-167.700096 0Z" fill="#FF8697" p-id="2743"></path><path d="M435.23281 437.947837c-63.196155 0-114.60942-51.413265-114.60942-114.605319s51.413265-114.60942 114.60942-114.60942 114.60942 51.413265 114.60942 114.60942-51.417366 114.605319-114.60942 114.605319z m0-167.695995c-29.27472 0-53.090676 23.815956-53.090676 53.090676s23.815956 53.086575 53.090676 53.086575 53.090676-23.815956 53.090676-53.086575-23.820058-53.090676-53.090676-53.090676z" fill="#6E6E96" p-id="2744"></path><path d="M261.602307 765.457225m-83.850048 0a83.850048 83.850048 0 1 0 167.700096 0 83.850048 83.850048 0 1 0-167.700096 0Z" fill="#FF8697" p-id="2745"></path><path d="M261.602307 880.062544c-63.196155 0-114.60942-51.413265-114.60942-114.605319s51.413265-114.605319 114.60942-114.605319 114.605319 51.413265 114.605319 114.605319-51.409164 114.605319-114.605319 114.605319z m0-167.691894c-29.27472 0-53.090676 23.815956-53.090676 53.086575s23.815956 53.086575 53.090676 53.086575 53.086575-23.815956 53.086575-53.086575-23.811855-53.086575-53.086575-53.086575z" fill="#6E6E96" p-id="2746"></path><path d="M662.405127 473.755847m-63.397117 0a63.397116 63.397116 0 1 0 126.794233 0 63.397116 63.397116 0 1 0-126.794233 0Z" fill="#FF8697" p-id="2747"></path><path d="M662.409228 567.908235c-51.917719 0-94.16059-42.23877-94.16059-94.152388 0-51.917719 42.242871-94.156488 94.16059-94.156488 51.913617 0 94.152387 42.23877 94.152387 94.156488 0 51.913617-42.23877 94.152387-94.152387 94.152388z m0-126.790132c-18.000384 0-32.641846 14.641461-32.641846 32.637744s14.641461 32.633643 32.641846 32.633644c17.996283 0 32.633643-14.63736 32.633643-32.633644s-14.641461-32.637744-32.633643-32.637744z" fill="#6E6E96" p-id="2748"></path><path d="M766.043704 673.999359m-83.850048 0a83.850048 83.850048 0 1 0 167.700096 0 83.850048 83.850048 0 1 0-167.700096 0Z" fill="#FF8697" p-id="2749"></path><path d="M766.043704 788.604678c-63.196155 0-114.60942-51.413265-114.60942-114.605319 0-63.196155 51.413265-114.60942 114.60942-114.60942 63.192054 0 114.605319 51.413265 114.605319 114.60942 0.004101 63.192054-51.409164 114.605319-114.605319 114.605319z m0-167.695995c-29.27472 0-53.090676 23.820058-53.090676 53.090676s23.820058 53.086575 53.090676 53.086575 53.086575-23.815956 53.086575-53.086575-23.811855-53.090676-53.086575-53.090676z" fill="#6E6E96" p-id="2750"></path><path d="M756.180199 661.970394m-28.860494 0a28.860493 28.860493 0 1 0 57.720987 0 28.860493 28.860493 0 1 0-57.720987 0Z" fill="#FFFFFF" opacity=".5" p-id="2751"></path><path d="M422.92496 307.105671m-28.860493 0a28.860493 28.860493 0 1 0 57.720986 0 28.860493 28.860493 0 1 0-57.720986 0Z" fill="#FFFFFF" opacity=".5" p-id="2752"></path><path d="M427.046716 585.129382m-47.980519 0a47.980519 47.980519 0 1 0 95.961038 0 47.980519 47.980519 0 1 0-95.961038 0Z" fill="#FFFFFF" opacity=".4" p-id="2753"></path><path d="M729.825569 308.122781m-27.843384 0a27.843384 27.843384 0 1 0 55.686767 0 27.843384 27.843384 0 1 0-55.686767 0Z" fill="#FFFFFF" p-id="2754"></path></svg>